<?xml version="1.0" encoding="UTF-8" standalone="no"?>
<!DOCTYPE svg PUBLIC "-//W3C//DTD SVG 1.1//EN" "http://www.w3.org/Graphics/SVG/1.1/DTD/svg11.dtd">
<svg width="100%" height="100%" viewBox="0 0 2000 800" version="1.1" xmlns="http://www.w3.org/2000/svg" xmlns:xlink="http://www.w3.org/1999/xlink" xml:space="preserve" xmlns:serif="http://www.serif.com/" style="fill-rule:evenodd;clip-rule:evenodd;stroke-linejoin:round;stroke-miterlimit:2;">
    <rect x="0" y="0" width="2000" height="800" style="fill:url(#_Radial1);"/>
    <g transform="matrix(17.8873,0,0,17.8873,-542.798,-85.3241)">
        <g opacity="0.06">
            <path d="M60.105,13.898C55.579,11.821 50.727,10.292 45.653,9.415C45.56,9.399 45.468,9.441 45.42,9.525C44.796,10.635 44.105,12.083 43.621,13.222C38.164,12.405 32.734,12.405 27.389,13.222C26.905,12.058 26.189,10.635 25.562,9.525C25.514,9.444 25.422,9.401 25.329,9.415C20.258,10.289 15.406,11.819 10.878,13.898C10.838,13.915 10.805,13.943 10.783,13.98C1.578,27.731 -0.944,41.144 0.293,54.391C0.299,54.456 0.335,54.518 0.386,54.558C6.459,59.017 12.341,61.725 18.115,63.52C18.207,63.548 18.305,63.514 18.364,63.438C19.73,61.573 20.947,59.606 21.991,57.538C22.052,57.417 21.994,57.274 21.868,57.226C19.937,56.493 18.098,55.6 16.329,54.586C16.189,54.504 16.178,54.304 16.307,54.208C16.679,53.929 17.051,53.639 17.407,53.346C17.471,53.293 17.561,53.281 17.636,53.315C29.256,58.62 41.835,58.62 53.318,53.315C53.394,53.279 53.483,53.29 53.55,53.343C53.906,53.636 54.278,53.929 54.653,54.208C54.782,54.304 54.773,54.504 54.633,54.586C52.865,55.62 51.026,56.493 49.092,57.223C48.966,57.271 48.91,57.417 48.972,57.538C50.038,59.603 51.255,61.57 52.596,63.435C52.652,63.514 52.753,63.548 52.845,63.52C58.646,61.725 64.529,59.017 70.602,54.558C70.655,54.518 70.689,54.459 70.694,54.394C72.175,39.079 68.215,25.776 60.197,13.982C60.177,13.943 60.144,13.915 60.105,13.898ZM23.726,46.325C20.228,46.325 17.345,43.114 17.345,39.169C17.345,35.225 20.172,32.013 23.726,32.013C27.308,32.013 30.163,35.253 30.107,39.169C30.107,43.114 27.28,46.325 23.726,46.325ZM47.318,46.325C43.82,46.325 40.937,43.114 40.937,39.169C40.937,35.225 43.764,32.013 47.318,32.013C50.9,32.013 53.755,35.253 53.699,39.169C53.699,43.114 50.9,46.325 47.318,46.325Z" style="fill:white;fill-rule:nonzero;"/>
        </g>
    </g>
    <g transform="matrix(24.7464,0,0,24.7464,1100.81,-1172.13)">
        <g opacity="0.06">
            <path d="M60.105,13.898C55.579,11.821 50.727,10.292 45.653,9.415C45.56,9.399 45.468,9.441 45.42,9.525C44.796,10.635 44.105,12.083 43.621,13.222C38.164,12.405 32.734,12.405 27.389,13.222C26.905,12.058 26.189,10.635 25.562,9.525C25.514,9.444 25.422,9.401 25.329,9.415C20.258,10.289 15.406,11.819 10.878,13.898C10.838,13.915 10.805,13.943 10.783,13.98C1.578,27.731 -0.944,41.144 0.293,54.391C0.299,54.456 0.335,54.518 0.386,54.558C6.459,59.017 12.341,61.725 18.115,63.52C18.207,63.548 18.305,63.514 18.364,63.438C19.73,61.573 20.947,59.606 21.991,57.538C22.052,57.417 21.994,57.274 21.868,57.226C19.937,56.493 18.098,55.6 16.329,54.586C16.189,54.504 16.178,54.304 16.307,54.208C16.679,53.929 17.051,53.639 17.407,53.346C17.471,53.293 17.561,53.281 17.636,53.315C29.256,58.62 41.835,58.62 53.318,53.315C53.394,53.279 53.483,53.29 53.55,53.343C53.906,53.636 54.278,53.929 54.653,54.208C54.782,54.304 54.773,54.504 54.633,54.586C52.865,55.62 51.026,56.493 49.092,57.223C48.966,57.271 48.91,57.417 48.972,57.538C50.038,59.603 51.255,61.57 52.596,63.435C52.652,63.514 52.753,63.548 52.845,63.52C58.646,61.725 64.529,59.017 70.602,54.558C70.655,54.518 70.689,54.459 70.694,54.394C72.175,39.079 68.215,25.776 60.197,13.982C60.177,13.943 60.144,13.915 60.105,13.898ZM23.726,46.325C20.228,46.325 17.345,43.114 17.345,39.169C17.345,35.225 20.172,32.013 23.726,32.013C27.308,32.013 30.163,35.253 30.107,39.169C30.107,43.114 27.28,46.325 23.726,46.325ZM47.318,46.325C43.82,46.325 40.937,43.114 40.937,39.169C40.937,35.225 43.764,32.013 47.318,32.013C50.9,32.013 53.755,35.253 53.699,39.169C53.699,43.114 50.9,46.325 47.318,46.325Z" style="fill:white;fill-rule:nonzero;"/>
        </g>
    </g>
    <g transform="matrix(1.40563,0,0,1.40563,-405.633,-224.14)">
        <g transform="matrix(2.90442,0,0,2.90442,896.894,274.906)">
            <path d="M60.105,13.898C55.579,11.821 50.727,10.292 45.653,9.415C45.56,9.399 45.468,9.441 45.42,9.525C44.796,10.635 44.105,12.083 43.621,13.222C38.164,12.405 32.734,12.405 27.389,13.222C26.905,12.058 26.189,10.635 25.562,9.525C25.514,9.444 25.422,9.401 25.329,9.415C20.258,10.289 15.406,11.819 10.878,13.898C10.838,13.915 10.805,13.943 10.783,13.98C1.578,27.731 -0.944,41.144 0.293,54.391C0.299,54.456 0.335,54.518 0.386,54.558C6.459,59.017 12.341,61.725 18.115,63.52C18.207,63.548 18.305,63.514 18.364,63.438C19.73,61.573 20.947,59.606 21.991,57.538C22.052,57.417 21.994,57.274 21.868,57.226C19.937,56.493 18.098,55.6 16.329,54.586C16.189,54.504 16.178,54.304 16.307,54.208C16.679,53.929 17.051,53.639 17.407,53.346C17.471,53.293 17.561,53.281 17.636,53.315C29.256,58.62 41.835,58.62 53.318,53.315C53.394,53.279 53.483,53.29 53.55,53.343C53.906,53.636 54.278,53.929 54.653,54.208C54.782,54.304 54.773,54.504 54.633,54.586C52.865,55.62 51.026,56.493 49.092,57.223C48.966,57.271 48.91,57.417 48.972,57.538C50.038,59.603 51.255,61.57 52.596,63.435C52.652,63.514 52.753,63.548 52.845,63.52C58.646,61.725 64.529,59.017 70.602,54.558C70.655,54.518 70.689,54.459 70.694,54.394C72.175,39.079 68.215,25.776 60.197,13.982C60.177,13.943 60.144,13.915 60.105,13.898ZM23.726,46.325C20.228,46.325 17.345,43.114 17.345,39.169C17.345,35.225 20.172,32.013 23.726,32.013C27.308,32.013 30.163,35.253 30.107,39.169C30.107,43.114 27.28,46.325 23.726,46.325ZM47.318,46.325C43.82,46.325 40.937,43.114 40.937,39.169C40.937,35.225 43.764,32.013 47.318,32.013C50.9,32.013 53.755,35.253 53.699,39.169C53.699,43.114 50.9,46.325 47.318,46.325Z" style="fill:white;fill-rule:nonzero;"/>
        </g>
        <g transform="matrix(0.500001,0,0,0.500001,752.969,144.044)">
            <g transform="matrix(1,0,0,1,136,793)">
                <text x="0px" y="0px" style="font-family:'Roboto-Bold', 'Roboto';font-weight:700;font-size:164.733px;fill:white;">F</text>
            </g>
            <g transform="matrix(1,0,0,1,210.806,793)">
                <text x="0px" y="0px" style="font-family:'Roboto-Bold', 'Roboto';font-weight:700;font-size:164.733px;fill:white;">A<tspan x="109.152px 214.603px 314.264px 428px 529.269px " y="0px 0px 0px 0px 0px ">CTORY</tspan></text>
            </g>
        </g>
    </g>
    <g transform="matrix(0.663437,0,0,0.663437,449.366,165.631)">
        <text x="496px" y="643px" style="font-family:'Roboto-Regular', 'Roboto';font-size:50px;fill:white;fill-opacity:0.25;">The ﬁrst typescript fr<tspan x="956.938px " y="643px ">a</tspan>mework</text>
    </g>
    <defs>
        <radialGradient id="_Radial1" cx="0" cy="0" r="1" gradientUnits="userSpaceOnUse" gradientTransform="matrix(1000,-364.749,364.749,1000,1000,364.749)"><stop offset="0" style="stop-color:rgb(0,29,58);stop-opacity:1"/><stop offset="0.08" style="stop-color:rgb(0,42,84);stop-opacity:1"/><stop offset="0.17" style="stop-color:rgb(0,52,104);stop-opacity:1"/><stop offset="0.5" style="stop-color:rgb(0,56,111);stop-opacity:1"/><stop offset="0.72" style="stop-color:rgb(0,48,95);stop-opacity:1"/><stop offset="1" style="stop-color:rgb(0,30,59);stop-opacity:1"/></radialGradient>
    </defs>
</svg>
